<svg width="24" height="24" viewBox="0 0 24 24" fill="none" xmlns="http://www.w3.org/2000/svg">
<g clip-path="url(#clip0_3_589)">
<rect width="24" height="24" fill="#BEEDFF"/>
<path d="M1 12C1 4 4 1 12 1C20 1 23 4 23 12C23 20 20 23 12 23C4 23 1 20 1 12Z" fill="#BEEDFF"/>
<path d="M14.94 15.33H14.37C13.8623 15.7079 13.2747 15.9643 12.6524 16.0795C12.0301 16.1948 11.3896 16.1658 10.7802 15.9949C10.1709 15.824 9.6088 15.5156 9.13723 15.0935C8.66566 14.6714 8.29714 14.1468 8.06 13.56C7.693 13.3591 7.33897 13.1353 7 12.89C7.17781 13.7976 7.60383 14.638 8.2307 15.3179C8.85757 15.9978 9.66073 16.4906 10.5509 16.7413C11.441 16.9921 12.3833 16.9911 13.2729 16.7384C14.1625 16.4857 14.9646 15.9913 15.59 15.31C15.39 15.33 15.17 15.33 14.94 15.33Z" fill="#2864FF"/>
<path d="M16.85 11.57C16.7327 10.5725 16.3178 9.63343 15.6591 8.87513C15.0005 8.11684 14.1288 7.57448 13.1575 7.31871C12.1862 7.06294 11.1604 7.10561 10.2137 7.44118C9.26706 7.77674 8.44339 8.38964 7.85003 9.20003C6.54003 9.46003 6.14003 10 6.00003 10.42C5.86003 10.84 6.00003 11.56 7.00003 12.42C8.29005 13.3593 9.75053 14.0386 11.3 14.42C12.4529 14.7441 13.6426 14.9188 14.84 14.94C15.1198 14.9557 15.4002 14.9557 15.68 14.94C17.27 14.78 17.75 14.16 17.87 13.68C17.99 13.2 18 12.45 16.85 11.57ZM6.85003 10.63C6.88743 10.5384 6.94439 10.456 7.01693 10.3886C7.08947 10.3213 7.17585 10.2705 7.27003 10.24C7.15308 10.5366 7.06924 10.8451 7.02003 11.16C6.95244 11.0907 6.9012 11.0071 6.87006 10.9154C6.83891 10.8237 6.82865 10.7262 6.84003 10.63H6.85003ZM11.61 13.63C10.242 13.2968 8.94484 12.721 7.78003 11.93C7.79362 11.2252 7.99004 10.5361 8.35003 9.93003V9.87003C8.81287 9.11353 9.50694 8.52612 10.3295 8.19469C11.1521 7.86327 12.0596 7.80544 12.9176 8.02975C13.7756 8.25407 14.5386 8.74862 15.0938 9.44024C15.6489 10.1319 15.9667 10.9838 16 11.87C16.0024 11.9133 16.0024 11.9567 16 12C16.0052 12.7281 15.8116 13.4439 15.44 14.07C14.1432 14.1188 12.8468 13.9601 11.6 13.6L11.61 13.63ZM17.17 13.45C17.17 13.61 16.93 13.79 16.5 13.93C16.66 13.5351 16.7708 13.122 16.83 12.7C17.12 13 17.2 13.26 17.16 13.42L17.17 13.45Z" fill="#2864FF"/>
</g>
<defs>
<clipPath id="clip0_3_589">
<rect width="24" height="24" fill="white"/>
</clipPath>
</defs>
</svg>
