<svg width="24" height="24" viewBox="0 0 24 24" fill="none" xmlns="http://www.w3.org/2000/svg">
<g clip-path="url(#clip0_3_705)">
<rect width="24" height="24" fill="#F3DDFF"/>
<path d="M1 12C1 4 4 1 12 1C20 1 23 4 23 12C23 20 20 23 12 23C4 23 1 20 1 12Z" fill="#F3DDFF"/>
<path d="M7.04999 7.61998C7.67999 7.97998 11.05 10.62 10.65 11.22C10.25 11.82 6.35999 10.22 5.72999 9.89997C5.56829 9.81977 5.42477 9.70726 5.30828 9.56939C5.19179 9.43152 5.10481 9.27123 5.05272 9.09841C5.00063 8.9256 4.98453 8.74394 5.00542 8.56466C5.02632 8.38539 5.08376 8.2123 5.17419 8.05609C5.26462 7.89989 5.38613 7.76389 5.5312 7.65651C5.67627 7.54912 5.84182 7.47263 6.01763 7.43175C6.19343 7.39088 6.37575 7.38649 6.55331 7.41887C6.73088 7.45124 6.89992 7.51969 7.04999 7.61998Z" fill="#B731FF"/>
<path d="M18.27 14.1C17.64 13.73 13.72 12.15 13.35 12.78C12.98 13.41 16.35 16.02 16.95 16.38C17.1001 16.4803 17.2691 16.5488 17.4467 16.5811C17.6242 16.6135 17.8066 16.6091 17.9824 16.5683C18.1582 16.5274 18.3237 16.4509 18.4688 16.3435C18.6139 16.2361 18.7354 16.1001 18.8258 15.9439C18.9162 15.7877 18.9737 15.6146 18.9946 15.4353C19.0155 15.2561 18.9994 15.0744 18.9473 14.9016C18.8952 14.7288 18.8082 14.5685 18.6917 14.4306C18.5752 14.2927 18.4317 14.1802 18.27 14.1Z" fill="#B731FF"/>
<path d="M16.38 7.05C16.02 7.68 13.38 11.05 12.78 10.65C12.18 10.25 13.78 6.36 14.1 5.73C14.2864 5.45114 14.5719 5.25368 14.8986 5.17773C15.2252 5.10177 15.5686 5.15303 15.8589 5.32107C16.1491 5.48912 16.3645 5.76136 16.4613 6.08248C16.5581 6.40361 16.529 6.74954 16.38 7.05Z" fill="#B731FF"/>
<path d="M9.90001 18.2701C10.27 17.6401 11.85 13.7201 11.22 13.3501C10.59 12.9801 8.00001 16.3201 7.62001 17.0001C7.50349 17.1503 7.42082 17.324 7.37765 17.5092C7.33449 17.6944 7.33185 17.8868 7.36992 18.0731C7.40799 18.2594 7.48586 18.4353 7.59821 18.5887C7.71056 18.7421 7.85473 18.8695 8.02086 18.962C8.18699 19.0546 8.37116 19.1101 8.56075 19.1249C8.75034 19.1396 8.94088 19.1132 9.11933 19.0475C9.29778 18.9818 9.45992 18.8783 9.59466 18.7441C9.72941 18.61 9.83356 18.4482 9.90001 18.2701Z" fill="#B731FF"/>
<path d="M18.27 9.89997C17.64 10.27 13.72 11.85 13.35 11.22C12.98 10.59 16.35 7.97998 16.95 7.61998C17.1001 7.51969 17.2691 7.45124 17.4467 7.41887C17.6242 7.38649 17.8066 7.39088 17.9824 7.43175C18.1582 7.47263 18.3237 7.54912 18.4688 7.65651C18.6139 7.76389 18.7354 7.89989 18.8258 8.05609C18.9162 8.2123 18.9737 8.38539 18.9946 8.56466C19.0155 8.74394 18.9994 8.9256 18.9473 9.09841C18.8952 9.27123 18.8082 9.43152 18.6917 9.56939C18.5752 9.70726 18.4317 9.81977 18.27 9.89997Z" fill="#B731FF"/>
<path d="M7.04999 16.38C7.67999 16.02 11.05 13.38 10.65 12.78C10.25 12.18 6.35999 13.78 5.72999 14.1C5.56829 14.1802 5.42477 14.2927 5.30828 14.4306C5.19179 14.5685 5.10481 14.7288 5.05272 14.9016C5.00063 15.0744 4.98453 15.256 5.00542 15.4353C5.02632 15.6146 5.08376 15.7877 5.17419 15.9439C5.26462 16.1001 5.38613 16.2361 5.5312 16.3435C5.67627 16.4509 5.84182 16.5274 6.01763 16.5682C6.19343 16.6091 6.37575 16.6135 6.55331 16.5811C6.73088 16.5487 6.89992 16.4803 7.04999 16.38Z" fill="#B731FF"/>
<path d="M14.1 18.27C13.73 17.64 12.15 13.72 12.78 13.35C13.41 12.98 16.02 16.35 16.38 16.95C16.529 17.2504 16.5581 17.5963 16.4613 17.9175C16.3645 18.2386 16.1491 18.5108 15.8589 18.6789C15.5686 18.8469 15.2252 18.8982 14.8986 18.8222C14.5719 18.7463 14.2864 18.5488 14.1 18.27Z" fill="#B731FF"/>
<path d="M7.62001 7.05002C7.98001 7.68002 10.62 11.05 11.22 10.65C11.82 10.25 10.22 6.36002 9.90001 5.73002C9.8198 5.56832 9.70729 5.4248 9.56942 5.30831C9.43155 5.19182 9.27126 5.10484 9.09844 5.05275C8.92563 5.00066 8.74397 4.98456 8.5647 5.00546C8.38542 5.02635 8.21233 5.08379 8.05612 5.17422C7.89992 5.26465 7.76392 5.38616 7.65654 5.53123C7.54915 5.6763 7.47266 5.84186 7.43178 6.01766C7.39091 6.19346 7.38652 6.37578 7.4189 6.55335C7.45127 6.73091 7.51972 6.89995 7.62001 7.05002Z" fill="#B731FF"/>
<path d="M5.52001 10.6801C6.25001 10.6801 10.44 11.2701 10.44 12.0001C10.44 12.7301 6.25001 13.3201 5.52001 13.3201C5.16993 13.3201 4.83418 13.181 4.58663 12.9334C4.33908 12.6859 4.20001 12.3501 4.20001 12.0001C4.20001 11.65 4.33908 11.3142 4.58663 11.0667C4.83418 10.8191 5.16993 10.6801 5.52001 10.6801Z" fill="#B731FF"/>
<path d="M18.48 10.6801C17.75 10.6801 13.56 11.2701 13.56 12.0001C13.56 12.7301 17.75 13.3201 18.48 13.3201C18.8301 13.3201 19.1658 13.181 19.4134 12.9334C19.6609 12.6859 19.8 12.3501 19.8 12.0001C19.8 11.65 19.6609 11.3142 19.4134 11.0667C19.1658 10.8191 18.8301 10.6801 18.48 10.6801Z" fill="#B731FF"/>
<path d="M13.32 5.51995C13.32 6.24995 12.73 10.44 12 10.44C11.27 10.44 10.68 6.24995 10.68 5.51995C10.68 5.16987 10.8191 4.83412 11.0666 4.58657C11.3142 4.33902 11.6499 4.19995 12 4.19995C12.3501 4.19995 12.6858 4.33902 12.9334 4.58657C13.1809 4.83412 13.32 5.16987 13.32 5.51995Z" fill="#B731FF"/>
<path d="M13.32 18.4801C13.32 17.7501 12.73 13.5601 12 13.5601C11.27 13.5601 10.68 17.7501 10.68 18.4801C10.68 18.8301 10.8191 19.1659 11.0666 19.4134C11.3142 19.661 11.6499 19.8001 12 19.8001C12.3501 19.8001 12.6858 19.661 12.9334 19.4134C13.1809 19.1659 13.32 18.8301 13.32 18.4801Z" fill="#B731FF"/>
</g>
<defs>
<clipPath id="clip0_3_705">
<rect width="24" height="24" fill="white"/>
</clipPath>
</defs>
</svg>
