<svg width="24" height="24" viewBox="0 0 24 24" fill="none" xmlns="http://www.w3.org/2000/svg">
<rect width="24" height="24" fill="#CCE1FF"/>
<path d="M1 12C1 4 4 1 12 1C20 1 23 4 23 12C23 20 20 23 12 23C4 23 1 20 1 12Z" fill="#CCE1FF"/>
<path d="M13.56 7.68C13.2287 7.68 12.96 7.94863 12.96 8.28C12.96 8.61138 13.2287 8.88 13.56 8.88H18.12C18.4514 8.88 18.72 8.61138 18.72 8.28C18.72 7.94863 18.4514 7.68 18.12 7.68H13.56Z" fill="#2050FF"/>
<path d="M5.88003 7.68C5.54866 7.68 5.28003 7.94863 5.28003 8.28C5.28003 8.61138 5.54866 8.88 5.88003 8.88H10.44C10.7714 8.88 11.04 8.61138 11.04 8.28C11.04 7.94863 10.7714 7.68 10.44 7.68H5.88003Z" fill="#2050FF"/>
<path d="M8.76 6.00002C8.76 5.66865 8.49137 5.40002 8.16 5.40002C7.82863 5.40002 7.56 5.66865 7.56 6.00002V10.56C7.56 10.8914 7.82863 11.16 8.16 11.16C8.49137 11.16 8.76 10.8914 8.76 10.56V6.00002Z" fill="#2050FF"/>
<path d="M13.56 15.12C13.2287 15.12 12.96 15.3886 12.96 15.72C12.96 16.0514 13.2287 16.32 13.56 16.32H18.12C18.4514 16.32 18.72 16.0514 18.72 15.72C18.72 15.3886 18.4514 15.12 18.12 15.12H13.56Z" fill="#2050FF"/>
<path d="M16.44 13.44C16.44 13.1087 16.1714 12.84 15.84 12.84C15.5086 12.84 15.24 13.1087 15.24 13.44C15.24 13.7714 15.5086 14.04 15.84 14.04C16.1714 14.04 16.44 13.7714 16.44 13.44Z" fill="#2050FF"/>
<path d="M16.44 18C16.44 17.6687 16.1714 17.4 15.84 17.4C15.5086 17.4 15.24 17.6687 15.24 18C15.24 18.3314 15.5086 18.6 15.84 18.6C16.1714 18.6 16.44 18.3314 16.44 18Z" fill="#2050FF"/>
<path d="M5.92834 17.9376L5.93542 17.9446C6.16973 18.1789 6.54963 18.1789 6.78394 17.9446L10.3831 14.3455C10.6174 14.1111 10.6174 13.7312 10.3831 13.4969L10.376 13.4899C10.1417 13.2555 9.76183 13.2555 9.52752 13.4899L5.92834 17.089C5.69403 17.3233 5.69403 17.7032 5.92834 17.9376Z" fill="#2050FF"/>
<path d="M5.94244 13.4883L5.93537 13.4954C5.70106 13.7297 5.70106 14.1096 5.93537 14.3439L9.53455 17.9431C9.76886 18.1774 10.1488 18.1774 10.3831 17.9431L10.3901 17.936C10.6245 17.7017 10.6245 17.3218 10.3901 17.0875L6.79097 13.4883C6.55666 13.254 6.17676 13.254 5.94244 13.4883Z" fill="#2050FF"/>
</svg>
