<svg width="24" height="24" viewBox="0 0 24 24" fill="none" xmlns="http://www.w3.org/2000/svg">
<g clip-path="url(#clip0_3_736)">
<rect width="24" height="24" fill="#E9C1FF"/>
<path d="M1 12C1 4 4 1 12 1C20 1 23 4 23 12C23 20 20 23 12 23C4 23 1 20 1 12Z" fill="#E9C1FF"/>
<path d="M17.54 4.56006H6.46C6.3191 4.56003 6.17961 4.5881 6.04968 4.64262C5.91976 4.69713 5.802 4.777 5.70331 4.87756C5.60461 4.97812 5.52695 5.09735 5.47487 5.22827C5.42279 5.35919 5.39734 5.49918 5.4 5.64006V18.3601C5.39734 18.5009 5.42279 18.6409 5.47487 18.7718C5.52695 18.9028 5.60461 19.022 5.70331 19.1226C5.802 19.2231 5.91976 19.303 6.04968 19.3575C6.17961 19.412 6.3191 19.4401 6.46 19.4401H17.54C17.6809 19.4401 17.8204 19.412 17.9503 19.3575C18.0802 19.303 18.198 19.2231 18.2967 19.1226C18.3954 19.022 18.473 18.9028 18.5251 18.7718C18.5772 18.6409 18.6027 18.5009 18.6 18.3601V5.64006C18.6027 5.49918 18.5772 5.35919 18.5251 5.22827C18.473 5.09735 18.3954 4.97812 18.2967 4.87756C18.198 4.777 18.0802 4.69713 17.9503 4.64262C17.8204 4.5881 17.6809 4.56003 17.54 4.56006ZM8.94 6.24006C8.80739 6.24006 8.68021 6.18738 8.58645 6.09361C8.49268 5.99984 8.44 5.87267 8.44 5.74006C8.44 5.60745 8.49268 5.48027 8.58645 5.38651C8.68021 5.29274 8.80739 5.24006 8.94 5.24006C9.07261 5.24006 9.19978 5.29274 9.29355 5.38651C9.38732 5.48027 9.44 5.60745 9.44 5.74006C9.44 5.87267 9.38732 5.99984 9.29355 6.09361C9.19978 6.18738 9.07261 6.24006 8.94 6.24006ZM15.06 6.24006C14.9274 6.24006 14.8002 6.18738 14.7064 6.09361C14.6127 5.99984 14.56 5.87267 14.56 5.74006C14.56 5.60745 14.6127 5.48027 14.7064 5.38651C14.8002 5.29274 14.9274 5.24006 15.06 5.24006C15.1926 5.24006 15.3198 5.29274 15.4136 5.38651C15.5073 5.48027 15.56 5.60745 15.56 5.74006C15.56 5.87267 15.5073 5.99984 15.4136 6.09361C15.3198 6.18738 15.1926 6.24006 15.06 6.24006Z" fill="white"/>
<path d="M4.85 18.2301L5.34 12.9301H18.66L19.15 18.2301C19.1654 18.3787 19.1494 18.5289 19.1032 18.671C19.057 18.8131 18.9815 18.9439 18.8817 19.0551C18.7818 19.1663 18.6598 19.2553 18.5234 19.3164C18.3871 19.3776 18.2394 19.4094 18.09 19.4101H5.91C5.76057 19.4094 5.61293 19.3776 5.47658 19.3164C5.34023 19.2553 5.21819 19.1663 5.11833 19.0551C5.01848 18.9439 4.94301 18.8131 4.89679 18.671C4.85058 18.5289 4.83464 18.3787 4.85 18.2301Z" fill="#7600B6"/>
<path d="M4.56999 7.92995L5.33999 12.9299H18.66L19.43 7.92995C19.4546 7.77672 19.4457 7.61997 19.4037 7.47055C19.3617 7.32114 19.2878 7.18264 19.1869 7.06468C19.0861 6.94671 18.9608 6.85209 18.8197 6.78738C18.6786 6.72267 18.5252 6.68943 18.37 6.68995H5.62999C5.47479 6.68943 5.32134 6.72267 5.18028 6.78738C5.03921 6.85209 4.91391 6.94671 4.81307 7.06468C4.71222 7.18264 4.63825 7.32114 4.59627 7.47055C4.5543 7.61997 4.54533 7.77672 4.56999 7.92995Z" fill="#8C00D7"/>
<path d="M11.68 15.9999H7.93001V15.6199L10 13.3399C10.2735 13.0344 10.5117 12.6989 10.71 12.3399C10.8353 12.113 10.9039 11.8591 10.91 11.5999C10.9186 11.4354 10.8938 11.2709 10.8371 11.1162C10.7804 10.9615 10.6929 10.8199 10.58 10.6999C10.4564 10.5864 10.3113 10.4988 10.1533 10.4421C9.99532 10.3854 9.82761 10.3609 9.66001 10.3699C9.47517 10.36 9.29034 10.3897 9.11788 10.4569C8.94542 10.5242 8.78932 10.6275 8.66001 10.7599C8.53415 10.8931 8.4365 11.0503 8.37292 11.2222C8.30934 11.394 8.28114 11.5769 8.29001 11.7599H7.80001C7.79177 11.4481 7.86046 11.139 8.00001 10.8599C8.14697 10.5833 8.37334 10.3569 8.65001 10.2099C8.95494 10.0395 9.30095 9.9565 9.65001 9.96995C10.1167 9.93851 10.5769 10.0931 10.93 10.3999C11.0878 10.5519 11.2113 10.7358 11.2923 10.9392C11.3734 11.1427 11.4101 11.3611 11.4 11.5799C11.386 11.9026 11.2969 12.2176 11.14 12.4999C10.8783 12.9448 10.5699 13.3605 10.22 13.7399L8.54001 15.6299H11.68V15.9999Z" fill="#E9C1FF"/>
<path d="M13.69 12.78H14.2C14.458 12.7856 14.714 12.7344 14.95 12.63C15.1454 12.5412 15.3118 12.3991 15.43 12.22C15.5418 12.0399 15.6007 11.832 15.6 11.62C15.6104 11.4553 15.5864 11.2902 15.5296 11.1353C15.4728 10.9804 15.3844 10.8389 15.27 10.72C15.1452 10.6052 14.9985 10.5169 14.8387 10.4602C14.6789 10.4035 14.5092 10.3796 14.34 10.39C13.991 10.3741 13.6497 10.4963 13.39 10.73C13.2692 10.8439 13.1738 10.9821 13.11 11.1355C13.0462 11.2889 13.0156 11.454 13.02 11.62H12.53C12.5276 11.3196 12.6108 11.0247 12.77 10.77C12.9253 10.5148 13.151 10.3099 13.42 10.18C13.7055 10.0376 14.021 9.9656 14.34 9.96999C14.8075 9.9456 15.2663 10.1033 15.62 10.41C15.7783 10.5699 15.9018 10.7608 15.9827 10.9708C16.0636 11.1808 16.1001 11.4052 16.09 11.63C16.0908 11.9191 15.9958 12.2004 15.82 12.43C15.6219 12.6773 15.3587 12.8643 15.06 12.97C15.3949 13.0518 15.6937 13.2415 15.91 13.51C16.1046 13.7729 16.2066 14.0929 16.2 14.42C16.2078 14.6501 16.1673 14.8793 16.0812 15.0929C15.9951 15.3065 15.8653 15.4996 15.7 15.66C15.3293 15.9803 14.8493 16.1451 14.36 16.12C14.0149 16.128 13.6727 16.0561 13.36 15.91C13.0741 15.781 12.8312 15.5728 12.66 15.31C12.4955 15.0428 12.4121 14.7336 12.42 14.42H12.91C12.9062 14.5946 12.94 14.768 13.009 14.9284C13.078 15.0889 13.1806 15.2326 13.31 15.35C13.5878 15.5888 13.9438 15.717 14.31 15.71C14.6734 15.7333 15.0318 15.615 15.31 15.38C15.4422 15.2517 15.5433 15.0949 15.6057 14.9216C15.6681 14.7483 15.6901 14.5631 15.67 14.38C15.6806 14.2084 15.6509 14.0367 15.5832 13.8786C15.5154 13.7206 15.4116 13.5806 15.28 13.47C14.9522 13.2348 14.5525 13.1216 14.15 13.15H13.65L13.69 12.78Z" fill="#E9C1FF"/>
</g>
<defs>
<clipPath id="clip0_3_736">
<rect width="24" height="24" fill="white"/>
</clipPath>
</defs>
</svg>
