<svg width="24" height="24" viewBox="4 0 24 24" fill="none" xmlns="http://www.w3.org/2000/svg">
<g filter="url(#filter0_d_3_610)">
<g clip-path="url(#clip0_3_610)">
<rect width="24" height="24" transform="translate(4)" fill="#FF8E00"/>
<path d="M5 12C5 4 8 1 16 1C24 1 27 4 27 12C27 20 24 23 16 23C8 23 5 20 5 12Z" fill="#FF8E00"/>
<path d="M20.44 7.08002H11.56C10.9871 7.08002 10.4377 7.30759 10.0326 7.71267C9.62756 8.11775 9.39999 8.66715 9.39999 9.24002V14.76C9.39999 15.3329 9.62756 15.8823 10.0326 16.2874C10.4377 16.6924 10.9871 16.92 11.56 16.92H20.44C21.0129 16.92 21.5623 16.6924 21.9673 16.2874C22.3724 15.8823 22.6 15.3329 22.6 14.76V9.24002C22.6 8.66715 22.3724 8.11775 21.9673 7.71267C21.5623 7.30759 21.0129 7.08002 20.44 7.08002ZM16 14.4C15.5253 14.4 15.0613 14.2593 14.6666 13.9955C14.2719 13.7318 13.9643 13.357 13.7827 12.9185C13.601 12.4799 13.5535 11.9974 13.6461 11.5318C13.7387 11.0662 13.9673 10.6386 14.3029 10.303C14.6386 9.96732 15.0662 9.73874 15.5318 9.64613C15.9973 9.55353 16.4799 9.60106 16.9184 9.78271C17.357 9.96436 17.7318 10.272 17.9955 10.6666C18.2592 11.0613 18.4 11.5253 18.4 12C18.4013 12.3156 18.3401 12.6282 18.22 12.92C18.0999 13.2118 17.9231 13.4769 17.7 13.7C17.4769 13.9231 17.2118 14.0999 16.92 14.22C16.6282 14.3402 16.3155 14.4013 16 14.4ZM20 10.86C19.7389 10.86 19.4837 10.7826 19.2666 10.6376C19.0496 10.4925 18.8804 10.2864 18.7805 10.0452C18.6806 9.80396 18.6544 9.53855 18.7054 9.2825C18.7563 9.02644 18.882 8.79124 19.0666 8.60664C19.2512 8.42203 19.4864 8.29631 19.7425 8.24538C19.9985 8.19445 20.2639 8.22059 20.5051 8.3205C20.7463 8.4204 20.9525 8.58959 21.0975 8.80666C21.2426 9.02374 21.32 9.27895 21.32 9.54002C21.32 9.8901 21.1809 10.2259 20.9334 10.4734C20.6858 10.7209 20.3501 10.86 20 10.86Z" fill="white"/>
</g>
</g>
<defs>
<filter id="filter0_d_3_610" x="0" y="0" width="32" height="32" filterUnits="userSpaceOnUse" color-interpolation-filters="sRGB">
<feFlood flood-opacity="0" result="BackgroundImageFix"/>
<feColorMatrix in="SourceAlpha" type="matrix" values="0 0 0 0 0 0 0 0 0 0 0 0 0 0 0 0 0 0 127 0" result="hardAlpha"/>
<feOffset dy="4"/>
<feGaussianBlur stdDeviation="2"/>
<feComposite in2="hardAlpha" operator="out"/>
<feColorMatrix type="matrix" values="0 0 0 0 0 0 0 0 0 0 0 0 0 0 0 0 0 0 0.25 0"/>
<feBlend mode="normal" in2="BackgroundImageFix" result="effect1_dropShadow_3_610"/>
<feBlend mode="normal" in="SourceGraphic" in2="effect1_dropShadow_3_610" result="shape"/>
</filter>
<clipPath id="clip0_3_610">
<rect width="24" height="24" fill="white" transform="translate(4)"/>
</clipPath>
</defs>
</svg>
