<svg width="24" height="24" viewBox="0 0 24 24" fill="none" xmlns="http://www.w3.org/2000/svg">
<g clip-path="url(#clip0_3_626)">
<rect width="24" height="24" fill="#007824"/>
<path d="M1 12C1 4 4 1 12 1C20 1 23 4 23 12C23 20 20 23 12 23C4 23 1 20 1 12Z" fill="#007824"/>
<path d="M12 18C15.3137 18 18 15.3137 18 12C18 8.68629 15.3137 6 12 6C8.68629 6 6 8.68629 6 12C6 15.3137 8.68629 18 12 18Z" fill="white"/>
<path d="M13.91 13.22L12.48 11.79V7.65997C12.4774 7.52817 12.4239 7.40247 12.3307 7.30925C12.2375 7.21603 12.1118 7.16253 11.98 7.15997C11.8474 7.15997 11.7202 7.21265 11.6264 7.30642C11.5327 7.40019 11.48 7.52736 11.48 7.65997V12C11.4783 12.0663 11.4898 12.1322 11.5138 12.194C11.5379 12.2558 11.574 12.3122 11.62 12.36L13.2 13.94C13.2466 13.9866 13.302 14.0236 13.3629 14.0488C13.4238 14.074 13.4891 14.087 13.555 14.087C13.6209 14.087 13.6862 14.074 13.7471 14.0488C13.808 14.0236 13.8634 13.9866 13.91 13.94C13.9566 13.8934 13.9936 13.838 14.0188 13.7771C14.0441 13.7162 14.057 13.6509 14.057 13.585C14.057 13.519 14.0441 13.4538 14.0188 13.3928C13.9936 13.3319 13.9566 13.2766 13.91 13.23V13.22Z" fill="#00AC47"/>
</g>
<defs>
<clipPath id="clip0_3_626">
<rect width="24" height="24" fill="white"/>
</clipPath>
</defs>
</svg>
