<svg xmlns="http://www.w3.org/2000/svg" viewBox="0 0 1024 1024" width="1024" height="1024">
  <defs>
    <linearGradient id="discBg" x1="0" y1="0" x2="0" y2="1">
      <stop offset="0%" stop-color="#5B6EEA"/>
      <stop offset="100%" stop-color="#5865F2"/>
    </linearGradient>
  </defs>
  <rect width="1024" height="1024" rx="224" fill="url(#discBg)"/>
  <g transform="translate(512,480)" fill="#FFF">
    <path d="M-220,-160 C-220,-160 -170,-210 -80,-220 C-80,-220 -95,-195 -100,-170 C-60,-180 0,-180 40,-180 C80,-180 140,-180 180,-170 C175,-195 160,-220 160,-220 C250,-210 300,-160 300,-160 C300,-160 330,60 220,180 C220,180 190,145 165,115 C200,100 215,75 215,75 C190,90 165,100 140,108 C105,120 72,128 40,132 C-5,138 -48,135 -85,128 C-115,122 -140,114 -162,104 C-175,98 -190,90 -205,80 C-205,80 -190,105 -155,120 C-180,150 -210,185 -210,185 C-320,65 -220,-160 -220,-160Z"/>
    <ellipse cx="-80" cy="20" rx="55" ry="65" fill="#5865F2"/>
    <ellipse cx="155" cy="20" rx="55" ry="65" fill="#5865F2"/>
  </g>
</svg>
