<svg width="24" height="24" viewBox="0 0 24 24" fill="none" xmlns="http://www.w3.org/2000/svg">
<g clip-path="url(#clip0_3_746)">
<rect width="24" height="24" fill="#FFE8CA"/>
<path d="M1 12C1 4 4 1 12 1C20 1 23 4 23 12C23 20 20 23 12 23C4 23 1 20 1 12Z" fill="#FFE8CA"/>
<path d="M17.4 7.56006H6.6C6.20236 7.56006 5.88 7.88241 5.88 8.28006C5.88 8.6777 6.20236 9.00006 6.6 9.00006H17.4C17.7976 9.00006 18.12 8.6777 18.12 8.28006C18.12 7.88241 17.7976 7.56006 17.4 7.56006Z" fill="#FF9100"/>
<path d="M17.4 10.28H6.6C6.20236 10.28 5.88 10.6024 5.88 11C5.88 11.3977 6.20236 11.72 6.6 11.72H17.4C17.7976 11.72 18.12 11.3977 18.12 11C18.12 10.6024 17.7976 10.28 17.4 10.28Z" fill="#FF9100"/>
<path d="M17.4 13H6.6C6.20236 13 5.88 13.3224 5.88 13.72C5.88 14.1176 6.20236 14.44 6.6 14.44H17.4C17.7976 14.44 18.12 14.1176 18.12 13.72C18.12 13.3224 17.7976 13 17.4 13Z" fill="#FF9100"/>
<path d="M12.6 15.72H6.6C6.20236 15.72 5.88 16.0423 5.88 16.44C5.88 16.8376 6.20236 17.16 6.6 17.16H12.6C12.9977 17.16 13.32 16.8376 13.32 16.44C13.32 16.0423 12.9977 15.72 12.6 15.72Z" fill="#FF9100"/>
</g>
<defs>
<clipPath id="clip0_3_746">
<rect width="24" height="24" fill="white"/>
</clipPath>
</defs>
</svg>
