<svg width="24" height="24" viewBox="0 0 24 24" fill="none" xmlns="http://www.w3.org/2000/svg">
<g clip-path="url(#clip0_3_642)">
<rect width="24" height="24" fill="url(#paint0_linear_3_642)"/>
<path d="M14.55 10.53V12.86H17.92L17.39 16.28H14.55V22.88C13.7025 22.9628 12.8515 23.0028 12 23H10.91V16.3H7.82999V12.86H10.91V10.29C10.8793 9.6677 10.9731 9.04552 11.1861 8.45995C11.399 7.87439 11.7267 7.33725 12.15 6.88002C13.89 5.00002 18 6.00002 18 6.00002V8.86002H16.22C15.7771 8.86002 15.3523 9.03596 15.0391 9.34915C14.7259 9.66233 14.55 10.0871 14.55 10.53Z" fill="white"/>
</g>
<defs>
<linearGradient id="paint0_linear_3_642" x1="12" y1="0" x2="12" y2="24" gradientUnits="userSpaceOnUse">
<stop stop-color="#01B0FF"/>
<stop offset="1" stop-color="#0177F3"/>
</linearGradient>
<clipPath id="clip0_3_642">
<rect width="24" height="24" fill="white"/>
</clipPath>
</defs>
</svg>
