<svg xmlns="http://www.w3.org/2000/svg" viewBox="0 0 1024 1024" width="1024" height="1024">
  <defs>
    <linearGradient id="figBg" x1="0" y1="0" x2="0" y2="1">
      <stop offset="0%" stop-color="#333"/>
      <stop offset="100%" stop-color="#1E1E1E"/>
    </linearGradient>
  </defs>
  <rect width="1024" height="1024" rx="224" fill="url(#figBg)"/>
  <g transform="translate(362,232)">
    <rect x="0" y="0" width="140" height="140" rx="70" fill="#F24E1E"/>
    <rect x="0" y="0" width="140" height="140" rx="70" fill="#F24E1E"/>
    <rect x="160" y="0" width="140" height="140" rx="70" fill="#FF7262"/>
    <rect x="0" y="140" width="140" height="140" rx="70" fill="#A259FF"/>
    <circle cx="230" cy="210" r="70" fill="#1ABCFE"/>
    <rect x="0" y="280" width="140" height="140" rx="70" fill="#0ACF83"/>
    <rect x="0" y="0" width="140" height="280" rx="70" fill="#F24E1E"/>
    <rect x="0" y="140" width="140" height="280" rx="70" fill="#A259FF"/>
    <path d="M0,350 C0,311.3 31.3,280 70,280 L140,280 L140,350 C140,388.7 108.7,420 70,420 C31.3,420 0,388.7 0,350Z" fill="#0ACF83"/>
    <path d="M0,70 C0,31.3 31.3,0 70,0 L140,0 L140,140 L70,140 C31.3,140 0,108.7 0,70Z" fill="#F24E1E"/>
    <path d="M140,0 L210,0 C248.7,0 280,31.3 280,70 C280,108.7 248.7,140 210,140 L140,140Z" fill="#FF7262"/>
    <path d="M0,210 C0,171.3 31.3,140 70,140 L140,140 L140,280 L70,280 C31.3,280 0,248.7 0,210Z" fill="#A259FF"/>
    <circle cx="210" cy="210" r="70" fill="#1ABCFE"/>
  </g>
</svg>
