<svg width="24" height="24" viewBox="0 0 24 24" fill="none" xmlns="http://www.w3.org/2000/svg">
<g clip-path="url(#clip0_3_664)">
<rect width="24" height="24" fill="#0A66C2"/>
<path d="M1 12C1 4 4 1 12 1C20 1 23 4 23 12C23 20 20 23 12 23C4 23 1 20 1 12Z" fill="#0A66C2"/>
<path fill-rule="evenodd" clip-rule="evenodd" d="M7.64 8.63H12.29L12.08 7.9C12.0158 7.68742 11.8827 7.50226 11.7016 7.3737C11.5206 7.24515 11.3019 7.18052 11.08 7.19H7C6.73478 7.19 6.48043 7.29536 6.29289 7.48289C6.10536 7.67043 6 7.92478 6 8.19V10.26C6 10.0451 6.04249 9.83232 6.12503 9.63391C6.20757 9.43549 6.32853 9.25536 6.48095 9.10386C6.63337 8.95237 6.81424 8.83252 7.01315 8.75119C7.21207 8.66987 7.42511 8.62868 7.64 8.63Z" fill="#FFBEB9"/>
<path fill-rule="evenodd" clip-rule="evenodd" d="M17 16.81H7C6.73478 16.81 6.48043 16.7046 6.29289 16.5171C6.10536 16.3296 6 16.0752 6 15.81V9.63C6 9.36479 6.10536 9.11043 6.29289 8.9229C6.48043 8.73536 6.73478 8.63 7 8.63H17C17.2652 8.63 17.5196 8.73536 17.7071 8.9229C17.8946 9.11043 18 9.36479 18 9.63V15.81C18 16.0752 17.8946 16.3296 17.7071 16.5171C17.5196 16.7046 17.2652 16.81 17 16.81Z" fill="white"/>
</g>
<defs>
<clipPath id="clip0_3_664">
<rect width="24" height="24" fill="white"/>
</clipPath>
</defs>
</svg>
