<svg width="24" height="24" viewBox="0 0 24 24" fill="none" xmlns="http://www.w3.org/2000/svg">
<g clip-path="url(#clip0_3_1026)">
<rect width="24" height="24" fill="#FFCEFB"/>
<path d="M1 12C1 4 4 1 12 1C20 1 23 4 23 12C23 20 20 23 12 23C4 23 1 20 1 12Z" fill="#FFCEFB"/>
<path fill-rule="evenodd" clip-rule="evenodd" d="M17 6.99998L6.25002 11.54C6.17205 11.5711 6.10522 11.6249 6.05814 11.6945C6.01106 11.764 5.9859 11.846 5.9859 11.93C5.9859 12.0139 6.01106 12.096 6.05814 12.1655C6.10522 12.235 6.17205 12.2888 6.25002 12.32L8.25002 12.95C8.56647 13.0477 8.90097 13.0724 9.22834 13.0221C9.55571 12.9719 9.86742 12.8481 10.14 12.66L14.67 9.52998C14.7024 9.51327 14.7395 9.50811 14.7752 9.51533C14.8108 9.52256 14.843 9.54175 14.8663 9.56972C14.8896 9.5977 14.9027 9.63279 14.9034 9.6692C14.904 9.70561 14.8923 9.74116 14.87 9.76998L11.4 13.09C11.3117 13.1766 11.2437 13.2817 11.2007 13.3976C11.1577 13.5136 11.1409 13.6376 11.1514 13.7609C11.1619 13.8841 11.1995 14.0035 11.2615 14.1105C11.3235 14.2175 11.4084 14.3095 11.51 14.38L15.24 16.9C15.3566 16.9768 15.4905 17.0233 15.6295 17.0353C15.7686 17.0474 15.9085 17.0246 16.0365 16.969C16.1646 16.9134 16.2767 16.8268 16.3629 16.717C16.4491 16.6071 16.5065 16.4776 16.53 16.34L18 7.79998C18.0227 7.671 18.0102 7.53831 17.9639 7.4158C17.9177 7.2933 17.8393 7.1855 17.737 7.10369C17.6348 7.02189 17.5124 6.9691 17.3827 6.95085C17.2531 6.9326 17.1209 6.94957 17 6.99998Z" fill="#D400C3"/>
</g>
<defs>
<clipPath id="clip0_3_1026">
<rect width="24" height="24" fill="white"/>
</clipPath>
</defs>
</svg>
