<svg width="24" height="24" viewBox="0 0 24 24" fill="none" xmlns="http://www.w3.org/2000/svg">
<g clip-path="url(#clip0_3_789)">
<rect width="24" height="24" fill="#A3FFA7"/>
<path d="M1 12C1 4 4 1 12 1C20 1 23 4 23 12C23 20 20 23 12 23C4 23 1 20 1 12Z" fill="#A3FFA7"/>
<path d="M20.16 9L16.27 11.86V18.1H19C19.2983 18.1029 19.586 17.9898 19.8024 17.7845C20.0188 17.5793 20.1471 17.298 20.16 17V9Z" fill="#00AB07"/>
<path d="M3.84003 9L7.72003 11.88V18.11H5.00003C4.70011 18.1128 4.41097 17.9983 4.19426 17.7909C3.97756 17.5836 3.85045 17.2998 3.84003 17V9Z" fill="#007F05"/>
<path d="M16.27 7.09998L12 10.25L7.72998 7.09998V11.87L12 15.02L16.27 11.87V7.09998Z" fill="#007F05"/>
<path d="M3.84003 7.52V9L7.72003 11.88V7.1L6.51003 6.21C6.22101 5.99504 5.87023 5.87928 5.51003 5.88C5.29251 5.87736 5.07661 5.91776 4.87477 5.99887C4.67292 6.07999 4.4891 6.20021 4.33389 6.35263C4.17868 6.50505 4.05515 6.68666 3.97039 6.887C3.88563 7.08735 3.84133 7.30247 3.84003 7.52Z" fill="#00AB07"/>
<path d="M20.16 7.52V9L16.27 11.86V7.1L17.49 6.21C17.779 5.99504 18.1298 5.87928 18.49 5.88C18.7075 5.87736 18.9234 5.91776 19.1253 5.99887C19.3271 6.07999 19.5109 6.20021 19.6662 6.35263C19.8214 6.50505 19.9449 6.68666 20.0297 6.887C20.1144 7.08735 20.1587 7.30247 20.16 7.52Z" fill="#00FF0A"/>
</g>
<defs>
<clipPath id="clip0_3_789">
<rect width="24" height="24" fill="white"/>
</clipPath>
</defs>
</svg>
