<svg width="24" height="24" viewBox="0 0 24 24" fill="none" xmlns="http://www.w3.org/2000/svg">
<g clip-path="url(#clip0_3_808)">
<rect width="24" height="24" fill="#F74F4F"/>
<path d="M1 12C1 4 4 1 12 1C20 1 23 4 23 12C23 20 20 23 12 23C4 23 1 20 1 12Z" fill="#F74F4F"/>
<path d="M15.84 9.32999C15.84 8.31156 15.4354 7.33484 14.7153 6.6147C13.9951 5.89456 13.0184 5.48999 12 5.48999C10.9816 5.48999 10.0048 5.89456 9.2847 6.6147C8.56456 7.33484 8.15999 8.31156 8.15999 9.32999C8.155 9.39656 8.155 9.46342 8.15999 9.52999C8.27999 12.37 10.85 13.71 11.72 18.26C11.7362 18.3191 11.7715 18.3713 11.8202 18.4085C11.869 18.4457 11.9286 18.4658 11.99 18.4658C12.0513 18.4658 12.111 18.4457 12.1597 18.4085C12.2085 18.3713 12.2437 18.3191 12.26 18.26C13.13 13.71 15.7 12.37 15.82 9.52999C15.8317 9.46392 15.8383 9.39706 15.84 9.32999Z" fill="white"/>
<path d="M12 7.53998C12.3536 7.54195 12.6987 7.64861 12.9917 7.8465C13.2848 8.04438 13.5127 8.32463 13.6466 8.65188C13.7806 8.97912 13.8146 9.33871 13.7444 9.68528C13.6742 10.0318 13.5029 10.3499 13.2522 10.5992C13.0015 10.8485 12.6825 11.018 12.3356 11.0863C11.9886 11.1545 11.6292 11.1185 11.3027 10.9827C10.9762 10.847 10.6973 10.6175 10.501 10.3234C10.3048 10.0293 10.2 9.68358 10.2 9.32998C10.2027 8.85432 10.3935 8.39905 10.7307 8.06365C11.068 7.72824 11.5244 7.53997 12 7.53998Z" fill="#34A853"/>
</g>
<defs>
<clipPath id="clip0_3_808">
<rect width="24" height="24" fill="white"/>
</clipPath>
</defs>
</svg>
