<svg width="24" height="24" viewBox="0 0 24 24" fill="none" xmlns="http://www.w3.org/2000/svg">
<g clip-path="url(#clip0_3_729)">
<rect width="24" height="24" fill="#FFBC00"/>
<path d="M1 12C1 4 4 1 12 1C20 1 23 4 23 12C23 20 20 23 12 23C4 23 1 20 1 12Z" fill="#FFBC00"/>
<path d="M6.84 12C6.84479 12.9928 7.13591 13.9632 7.67844 14.7947C8.22097 15.6262 8.99187 16.2836 9.89866 16.6879C10.8055 17.0922 11.8096 17.2263 12.7908 17.0741C13.7719 16.922 14.6883 16.49 15.43 15.83L16.75 17.13C16.7836 17.1637 16.8264 17.1866 16.873 17.1959C16.9196 17.2053 16.968 17.2005 17.0119 17.1823C17.0558 17.1641 17.0934 17.1332 17.1197 17.0936C17.1461 17.0541 17.1601 17.0076 17.16 16.96V12H6.84Z" fill="white"/>
<path d="M17.16 12C17.16 10.6314 16.6164 9.31898 15.6487 8.35129C14.681 7.38361 13.3685 6.83997 12 6.83997C10.6315 6.83997 9.31901 7.38361 8.35133 8.35129C7.38364 9.31898 6.84 10.6314 6.84 12H17.16Z" fill="#E5E5E6"/>
</g>
<defs>
<clipPath id="clip0_3_729">
<rect width="24" height="24" fill="white"/>
</clipPath>
</defs>
</svg>
