<svg width="24" height="24" viewBox="0 0 24 24" fill="none" xmlns="http://www.w3.org/2000/svg">
<g clip-path="url(#clip0_3_983)">
<rect width="24" height="24" fill="#188038"/>
<path d="M1 12C1 4 4 1 12 1C20 1 23 4 23 12C23 20 20 23 12 23C4 23 1 20 1 12Z" fill="#188038"/>
<path fill-rule="evenodd" clip-rule="evenodd" d="M16.2 6.00003H8C7.61468 5.99803 7.23698 6.10739 6.91233 6.31496C6.58768 6.52252 6.32991 6.81944 6.17 7.17003C6.4738 7.20927 6.7511 7.36322 6.94506 7.60032C7.13902 7.83742 7.23496 8.13972 7.21323 8.44528C7.1915 8.75083 7.05373 9.03651 6.82816 9.24377C6.60259 9.45103 6.3063 9.56418 6 9.56003V10.8C6.31771 10.8035 6.62197 10.9288 6.85 11.15C7.00217 11.3198 7.1028 11.5295 7.14011 11.7545C7.17742 11.9794 7.14987 12.2103 7.06068 12.4202C6.97149 12.63 6.82436 12.8101 6.63651 12.9394C6.44866 13.0687 6.22787 13.1417 6 13.15V14.39C6.30446 14.3912 6.59711 14.508 6.81864 14.7169C7.04018 14.9257 7.17404 15.211 7.19311 15.5149C7.21218 15.8187 7.11504 16.1185 6.92135 16.3534C6.72767 16.5883 6.45193 16.7408 6.15 16.78C6.30377 17.1431 6.56142 17.4526 6.89058 17.6697C7.21974 17.8867 7.60572 18.0017 8 18H12.95C14.1541 15.8922 15.8969 14.1424 18 12.93V7.80003C17.9974 7.32345 17.8069 6.86713 17.4699 6.53014C17.1329 6.19314 16.6766 6.00265 16.2 6.00003Z" fill="white"/>
<path fill-rule="evenodd" clip-rule="evenodd" d="M12.93 18V14.91C12.93 14.3796 13.1407 13.8709 13.5158 13.4958C13.8909 13.1207 14.3996 12.91 14.93 12.91H18L12.93 18Z" fill="#188038"/>
</g>
<defs>
<clipPath id="clip0_3_983">
<rect width="24" height="24" fill="white"/>
</clipPath>
</defs>
</svg>
