<svg width="24" height="24" viewBox="0 0 24 24" fill="none" xmlns="http://www.w3.org/2000/svg">
<g clip-path="url(#clip0_3_815)">
<rect width="24" height="24" fill="#FFFDF4"/>
<path d="M1 12C1 4 4 1 12 1C20 1 23 4 23 12C23 20 20 23 12 23C4 23 1 20 1 12Z" fill="#FFFDF4"/>
<path d="M4.11145 11.9939C4.11145 10.9257 4.53581 9.90117 5.29118 9.1458C6.04655 8.39043 7.07106 7.96606 8.13931 7.96606C9.20757 7.96606 10.2321 8.39043 10.9874 9.1458C11.7428 9.90117 12.1672 10.9257 12.1672 11.9939H4.11145Z" fill="#64ABFF"/>
<path d="M16.195 7.96609C16.195 9.03435 15.7707 10.0589 15.0153 10.8142C14.2599 11.5696 13.2354 11.994 12.1672 11.994V3.93823C13.2354 3.93823 14.2599 4.3626 15.0153 5.11797C15.7707 5.87334 16.195 6.89784 16.195 7.96609Z" fill="#FF1B2D"/>
<path d="M20.2229 11.994C20.2229 13.0622 19.7985 14.0867 19.0432 14.8421C18.2878 15.5975 17.2633 16.0218 16.195 16.0218C15.1268 16.0218 14.1023 15.5975 13.3469 14.8421C12.5915 14.0867 12.1672 13.0622 12.1672 11.994H20.2229Z" fill="#FFBF00"/>
<path d="M8.13928 16.0218C8.13928 14.9536 8.56364 13.9291 9.31902 13.1737C10.0744 12.4183 11.0989 11.994 12.1671 11.994V20.0497C11.0989 20.0497 10.0744 19.6253 9.31902 18.8699C8.56364 18.1146 8.13928 17.0901 8.13928 16.0218" fill="#00D357"/>
</g>
<defs>
<clipPath id="clip0_3_815">
<rect width="24" height="24" fill="white"/>
</clipPath>
</defs>
</svg>
