<svg width="24" height="24" viewBox="0 0 24 24" fill="none" xmlns="http://www.w3.org/2000/svg">
<g clip-path="url(#clip0_3_573)">
<rect width="24" height="24" fill="#987DFF"/>
<path d="M1 12C1 4 4 1 12 1C20 1 23 4 23 12C23 20 20 23 12 23C4 23 1 20 1 12Z" fill="#987DFF"/>
<path d="M10.56 8.07998H7V7.59998C7 7.33476 7.10536 7.08041 7.29289 6.89287C7.48043 6.70533 7.73478 6.59998 8 6.59998H9.6C9.86522 6.59998 10.1196 6.70533 10.3071 6.89287C10.4946 7.08041 10.6 7.33476 10.6 7.59998L10.56 8.07998Z" fill="#FFBA00"/>
<path d="M16.8 17.2H7.20002C6.75446 17.2 6.32714 17.023 6.01208 16.708C5.69702 16.3929 5.52002 15.9656 5.52002 15.52V9.52003C5.52002 9.07446 5.69702 8.64715 6.01208 8.33209C6.32714 8.01703 6.75446 7.84003 7.20002 7.84003H16.8C17.2456 7.84003 17.6729 8.01703 17.988 8.33209C18.303 8.64715 18.48 9.07446 18.48 9.52003V15.52C18.48 15.9656 18.303 16.3929 17.988 16.708C17.6729 17.023 17.2456 17.2 16.8 17.2Z" fill="white"/>
<path d="M9.19998 14.68C10.3929 14.68 11.36 13.7129 11.36 12.52C11.36 11.3271 10.3929 10.36 9.19998 10.36C8.00704 10.36 7.03998 11.3271 7.03998 12.52C7.03998 13.7129 8.00704 14.68 9.19998 14.68Z" fill="#FFBA00"/>
<path d="M15.9 12H13.74C13.5809 12 13.4283 11.9368 13.3158 11.8243C13.2032 11.7117 13.14 11.5591 13.14 11.4C13.14 11.2409 13.2032 11.0882 13.3158 10.9757C13.4283 10.8632 13.5809 10.8 13.74 10.8H15.9C16.0591 10.8 16.2118 10.8632 16.3243 10.9757C16.4368 11.0882 16.5 11.2409 16.5 11.4C16.5 11.5591 16.4368 11.7117 16.3243 11.8243C16.2118 11.9368 16.0591 12 15.9 12Z" fill="#FFBA00"/>
<path d="M15.9 14.2H13.74C13.5809 14.2 13.4283 14.1368 13.3158 14.0243C13.2032 13.9117 13.14 13.7591 13.14 13.6C13.14 13.4409 13.2032 13.2883 13.3158 13.1757C13.4283 13.0632 13.5809 13 13.74 13H15.9C16.0591 13 16.2118 13.0632 16.3243 13.1757C16.4368 13.2883 16.5 13.4409 16.5 13.6C16.5 13.7591 16.4368 13.9117 16.3243 14.0243C16.2118 14.1368 16.0591 14.2 15.9 14.2Z" fill="#FFBA00"/>
</g>
<defs>
<clipPath id="clip0_3_573">
<rect width="24" height="24" fill="white"/>
</clipPath>
</defs>
</svg>
