<svg width="24" height="24" viewBox="0 0 24 24" fill="none" xmlns="http://www.w3.org/2000/svg">
<g clip-path="url(#clip0_3_1012)">
<rect width="24" height="24" fill="#FFBEBE"/>
<path d="M1 12C1 4 4 1 12 1C20 1 23 4 23 12C23 20 20 23 12 23C4 23 1 20 1 12Z" fill="#FFBEBE"/>
<path d="M17.85 10.68C17.7815 10.3369 17.6776 10.0017 17.54 9.68002C17.4115 9.36613 17.2542 9.06483 17.07 8.78002L15.54 9.00002C15.3831 8.79832 15.2017 8.61693 15 8.46002L15.17 6.93002C14.5937 6.56217 13.9574 6.29817 13.29 6.15002L12.29 7.35002C12.0504 7.33004 11.8096 7.33004 11.57 7.35002L10.57 6.15002C10.2268 6.2185 9.89171 6.32239 9.56999 6.46002C9.2561 6.5885 8.9548 6.74584 8.66999 6.93002L8.99999 8.46002C8.79829 8.61693 8.6169 8.79832 8.45999 9.00002L6.92999 8.80002C6.56214 9.3763 6.29814 10.0126 6.14999 10.68L7.34999 11.68C7.33001 11.9196 7.33001 12.1604 7.34999 12.4L6.14999 13.4C6.21847 13.7432 6.32236 14.0783 6.45999 14.4C6.58847 14.7139 6.74581 15.0152 6.92999 15.3L8.45999 15C8.60943 15.1894 8.78061 15.3606 8.96999 15.51L8.79999 17.07C9.37627 17.4379 10.0126 17.7019 10.68 17.85L11.68 16.65C11.9196 16.67 12.1604 16.67 12.4 16.65L13.4 17.85C13.7431 17.7815 14.0783 17.6777 14.4 17.54C14.7139 17.4115 15.0152 17.2542 15.3 17.07L15 15.54C15.1894 15.3906 15.3606 15.2194 15.51 15.03L17.04 15.2C17.4079 14.6237 17.6718 13.9875 17.82 13.32L16.62 12.32C16.64 12.0804 16.64 11.8396 16.62 11.6L17.85 10.68ZM12.72 13.74C12.3774 13.8851 11.9995 13.9252 11.6341 13.8554C11.2687 13.7855 10.9322 13.6089 10.6673 13.3477C10.4023 13.0866 10.2208 12.7527 10.1457 12.3883C10.0706 12.0239 10.1053 11.6455 10.2454 11.3008C10.3855 10.9562 10.6247 10.6609 10.9327 10.4522C11.2407 10.2436 11.6037 10.1311 11.9757 10.1288C12.3478 10.1266 12.7121 10.2348 13.0226 10.4397C13.3331 10.6447 13.5758 10.9371 13.72 11.28C13.9102 11.7392 13.912 12.2548 13.7248 12.7152C13.5376 13.1757 13.1767 13.5438 12.72 13.74Z" fill="#2F0000"/>
</g>
<defs>
<clipPath id="clip0_3_1012">
<rect width="24" height="24" fill="white"/>
</clipPath>
</defs>
</svg>
