<svg width="24" height="24" viewBox="0 0 24 24" fill="none" xmlns="http://www.w3.org/2000/svg">
<g clip-path="url(#clip0_3_649)">
<rect width="24" height="24" fill="#C12CD7"/>
<path d="M1 12C1 4 4 1 12 1C20 1 23 4 23 12C23 20 20 23 12 23C4 23 1 20 1 12Z" fill="#C12CD7"/>
<path d="M5.16 12C5.16 6.99997 7 5.15997 12 5.15997C17 5.15997 18.84 6.99997 18.84 12C18.84 17 17 18.84 12 18.84C7 18.84 5.16 17 5.16 12Z" fill="white" fill-opacity="0.26"/>
<path d="M13.92 11.76L10.68 8.40002L3.96001 15.6L10.08 12.24L13.32 15.6L20.04 8.40002L13.92 11.76Z" fill="white"/>
</g>
<defs>
<clipPath id="clip0_3_649">
<rect width="24" height="24" fill="white"/>
</clipPath>
</defs>
</svg>
