<svg width="24" height="24" viewBox="0 0 24 24" fill="none" xmlns="http://www.w3.org/2000/svg">
<g clip-path="url(#clip0_3_649)">
<rect width="24" height="24" fill="#FFEFDB"/>
<path d="M7.81189 3.93823C11.4669 3.93823 12.8119 5.28326 12.8119 8.93823C12.8119 12.5932 11.4669 13.9382 7.81189 13.9382C4.15692 13.9382 2.81189 12.5932 2.81189 8.93823C2.81189 5.28326 4.15692 3.93823 7.81189 3.93823Z" fill="#FF1717"/>
<path d="M13.6219 5.86823C13.6219 5.62158 13.7199 5.38503 13.8943 5.21062C14.0687 5.03621 14.3053 4.93823 14.5519 4.93823H15.6119C15.7341 4.93823 15.855 4.96229 15.9678 5.00902C16.0807 5.05576 16.1832 5.12426 16.2695 5.21062C16.3559 5.29698 16.4244 5.3995 16.4711 5.51234C16.5179 5.62517 16.5419 5.7461 16.5419 5.86823C16.5419 5.99036 16.5179 6.11129 16.4711 6.22413C16.4244 6.33696 16.3559 6.43948 16.2695 6.52584C16.1832 6.6122 16.0807 6.6807 15.9678 6.72744C15.855 6.77418 15.7341 6.79823 15.6119 6.79823H14.5519C14.3053 6.79823 14.0687 6.70025 13.8943 6.52584C13.7199 6.35143 13.6219 6.11488 13.6219 5.86823Z" fill="#FF1717"/>
<path d="M13.6219 19.3682C13.6219 19.1216 13.7199 18.885 13.8943 18.7106C14.0687 18.5362 14.3053 18.4382 14.5519 18.4382H15.6119C15.8586 18.4382 16.0951 18.5362 16.2695 18.7106C16.4439 18.885 16.5419 19.1216 16.5419 19.3682C16.5419 19.6149 16.4439 19.8514 16.2695 20.0258C16.0951 20.2003 15.8586 20.2982 15.6119 20.2982H14.5519C14.3053 20.2982 14.0687 20.2003 13.8943 20.0258C13.7199 19.8514 13.6219 19.6149 13.6219 19.3682Z" fill="#FF1717"/>
<path d="M14.3919 9.24823C14.3919 9.00065 14.4896 8.76306 14.6637 8.58706C14.8378 8.41106 15.0744 8.31086 15.3219 8.30823H18.7619C18.9932 8.33218 19.2074 8.44102 19.3632 8.61371C19.5189 8.7864 19.6051 9.01069 19.6051 9.24323C19.6051 9.47577 19.5189 9.70005 19.3632 9.87275C19.2074 10.0454 18.9932 10.1543 18.7619 10.1782H15.3219C15.1998 10.1782 15.0789 10.1542 14.966 10.1074C14.8532 10.0607 14.7507 9.9922 14.6643 9.90584C14.578 9.81948 14.5095 9.71696 14.4627 9.60412C14.416 9.49129 14.3919 9.37036 14.3919 9.24823Z" fill="#FF1717"/>
<path d="M10.4719 15.9882C10.4719 15.7416 10.5699 15.505 10.7443 15.3306C10.9187 15.1562 11.1553 15.0582 11.4019 15.0582L14.8419 15.0582C15.0732 15.0822 15.2875 15.191 15.4432 15.3637C15.5989 15.5364 15.6851 15.7607 15.6851 15.9932C15.6851 16.2258 15.5989 16.4501 15.4432 16.6227C15.2875 16.7954 15.0732 16.9043 14.8419 16.9282H11.4019C11.1544 16.9256 10.9178 16.8254 10.7437 16.6494C10.5696 16.4734 10.4719 16.2358 10.4719 15.9882V15.9882ZM16.7719 15.9882C16.7746 15.7407 16.8748 15.5041 17.0508 15.33C17.2268 15.1559 17.4644 15.0582 17.7119 15.0582H18.7119C18.9432 15.0822 19.1575 15.191 19.3132 15.3637C19.4689 15.5364 19.5551 15.7607 19.5551 15.9932C19.5551 16.2258 19.4689 16.4501 19.3132 16.6227C19.1575 16.7954 18.9432 16.9043 18.7119 16.9282H17.7119C17.5885 16.9282 17.4663 16.9039 17.3522 16.8567C17.2382 16.8094 17.1345 16.7402 17.0473 16.6529C16.96 16.5656 16.8907 16.462 16.8435 16.3479C16.7963 16.2339 16.7719 16.1117 16.7719 15.9882V15.9882Z" fill="#FF1717"/>
<path d="M14.3519 12.8682C14.3519 12.6216 14.4499 12.385 14.6243 12.2106C14.7987 12.0362 15.0352 11.9382 15.2819 11.9382L20.8819 11.9382C21.1285 11.9382 21.3651 12.0362 21.5395 12.2106C21.7139 12.385 21.8119 12.6216 21.8119 12.8682C21.8119 13.1149 21.7139 13.3514 21.5395 13.5258C21.3651 13.7003 21.1285 13.7982 20.8819 13.7982H15.2819C15.1598 13.7982 15.0388 13.7742 14.926 13.7274C14.8132 13.6807 14.7106 13.6122 14.6243 13.5258C14.5379 13.4395 14.4694 13.337 14.4227 13.2241C14.3759 13.1113 14.3519 12.9904 14.3519 12.8682Z" fill="#FF1717"/>
</g>
<defs>
<clipPath id="clip0_3_649">
<rect width="24" height="24" fill="white"/>
</clipPath>
</defs>
</svg>
