<svg width="24" height="24" viewBox="0 0 24 24" fill="none" xmlns="http://www.w3.org/2000/svg">
<g clip-path="url(#clip0_3_649)">
<rect width="24" height="24" fill="#FFEFDB"/>
<path d="M8.52339 4.93823C11.7315 4.93823 12.9121 6.11883 12.9121 9.32699C12.9121 12.5351 11.7315 13.7157 8.52339 13.7157C5.31523 13.7157 4.13463 12.5351 4.13463 9.32699C4.13463 6.11883 5.31523 4.93823 8.52339 4.93823Z" fill="#FF1717"/>
<path d="M13.6232 6.63229C13.6232 6.41579 13.7092 6.20816 13.8622 6.05507C14.0153 5.90198 14.223 5.81598 14.4395 5.81598H15.3699C15.4771 5.81598 15.5832 5.83709 15.6823 5.87812C15.7813 5.91914 15.8713 5.97927 15.9471 6.05507C16.0229 6.13087 16.083 6.22086 16.124 6.3199C16.1651 6.41894 16.1862 6.52509 16.1862 6.63229C16.1862 6.73949 16.1651 6.84564 16.124 6.94467C16.083 7.04371 16.0229 7.1337 15.9471 7.2095C15.8713 7.28531 15.7813 7.34543 15.6823 7.38646C15.5832 7.42748 15.4771 7.44859 15.3699 7.44859H14.4395C14.223 7.44859 14.0153 7.36259 13.8622 7.2095C13.7092 7.05642 13.6232 6.84879 13.6232 6.63229Z" fill="#FF1717"/>
<path d="M13.6232 18.4819C13.6232 18.2654 13.7092 18.0578 13.8622 17.9047C14.0153 17.7516 14.223 17.6656 14.4395 17.6656H15.3699C15.5864 17.6656 15.794 17.7516 15.9471 17.9047C16.1002 18.0578 16.1862 18.2654 16.1862 18.4819C16.1862 18.6984 16.1002 18.906 15.9471 19.0591C15.794 19.2122 15.5864 19.2982 15.3699 19.2982H14.4395C14.223 19.2982 14.0153 19.2122 13.8622 19.0591C13.7092 18.906 13.6232 18.6984 13.6232 18.4819Z" fill="#FF1717"/>
<path d="M14.299 9.59907C14.299 9.38176 14.3847 9.17321 14.5376 9.01873C14.6904 8.86425 14.898 8.7763 15.1153 8.77399H18.1348C18.3378 8.79501 18.5258 8.89054 18.6625 9.04212C18.7992 9.1937 18.8749 9.39057 18.8749 9.59468C18.8749 9.7988 18.7992 9.99566 18.6625 10.1472C18.5258 10.2988 18.3378 10.3944 18.1348 10.4154H15.1153C15.0081 10.4154 14.902 10.3943 14.8029 10.3532C14.7039 10.3122 14.6139 10.2521 14.5381 10.1763C14.4623 10.1005 14.4022 10.0105 14.3611 9.91146C14.3201 9.81242 14.299 9.70627 14.299 9.59907Z" fill="#FF1717"/>
<path d="M10.8582 15.5151C10.8582 15.2986 10.9442 15.091 11.0973 14.9379C11.2504 14.7848 11.4581 14.6988 11.6746 14.6988H14.694C14.897 14.7198 15.0851 14.8153 15.2218 14.9669C15.3585 15.1185 15.4341 15.3154 15.4341 15.5195C15.4341 15.7236 15.3585 15.9205 15.2218 16.072C15.0851 16.2236 14.897 16.3192 14.694 16.3402H11.6746C11.4573 16.3379 11.2496 16.2499 11.0968 16.0954C10.944 15.941 10.8582 15.7324 10.8582 15.5151V15.5151ZM16.3881 15.5151C16.3904 15.2978 16.4783 15.0902 16.6328 14.9373C16.7873 14.7845 16.9958 14.6988 17.2132 14.6988L18.0909 14.6988C18.2939 14.7198 18.482 14.8153 18.6187 14.9669C18.7554 15.1185 18.831 15.3154 18.831 15.5195C18.831 15.7236 18.7554 15.9205 18.6187 16.072C18.482 16.2236 18.2939 16.3192 18.0909 16.3402H17.2132C17.1048 16.3402 16.9975 16.3188 16.8974 16.2774C16.7973 16.2359 16.7064 16.1751 16.6297 16.0985C16.5531 16.0219 16.4923 15.931 16.4509 15.8308C16.4094 15.7307 16.3881 15.6235 16.3881 15.5151V15.5151Z" fill="#FF1717"/>
<path d="M14.2639 12.7766C14.2639 12.5601 14.3499 12.3524 14.503 12.1994C14.656 12.0463 14.8637 11.9603 15.0802 11.9603H19.9956C20.2121 11.9603 20.4197 12.0463 20.5728 12.1994C20.7259 12.3524 20.8119 12.5601 20.8119 12.7766C20.8119 12.9931 20.7259 13.2007 20.5728 13.3538C20.4197 13.5069 20.2121 13.5929 19.9956 13.5929H15.0802C14.973 13.5929 14.8668 13.5718 14.7678 13.5307C14.6688 13.4897 14.5788 13.4296 14.503 13.3538C14.4272 13.278 14.367 13.188 14.326 13.089C14.285 12.9899 14.2639 12.8838 14.2639 12.7766Z" fill="#FF1717"/>
</g>
<defs>
<clipPath id="clip0_3_649">
<rect width="24" height="24" fill="white"/>
</clipPath>
</defs>
</svg>
