<?xml version="1.0" encoding="UTF-8" standalone="no"?>
<!DOCTYPE svg PUBLIC "-//W3C//DTD SVG 1.1//EN" "http://www.w3.org/Graphics/SVG/1.1/DTD/svg11.dtd">
<svg xmlns="http://www.w3.org/2000/svg" version="1.1" viewBox="0.00 0.00 128.00 128.00">
<g stroke-width="2.00" fill="none" stroke-linecap="butt">
<path stroke="#328f9a" vector-effect="non-scaling-stroke" d="
  M 35.82 60.35
  L 35.79 83.88"
/>
<path stroke="#58a1ac" vector-effect="non-scaling-stroke" d="
  M 35.79 83.88
  C 35.66 92.34 33.86 102.98 43.51 107.22
  Q 46.32 108.46 52.33 108.48
  Q 65.27 108.52 78.21 108.50
  Q 84.70 108.49 87.61 107.20
  C 97.25 102.93 95.18 92.06 95.24 83.50"
/>
<path stroke="#328f9a" vector-effect="non-scaling-stroke" d="
  M 95.24 83.50
  L 95.38 60.36"
/>
<path stroke="#0e7987" vector-effect="non-scaling-stroke" d="
  M 95.38 60.36
  Q 95.34 52.34 95.18 43.72
  Q 95.03 35.69 93.47 32.54
  Q 90.49 26.53 82.76 26.05
  Q 75.37 25.59 52.23 25.99
  C 45.84 26.10 40.49 27.04 37.53 32.57
  Q 35.97 35.48 35.88 42.12
  Q 35.76 51.38 35.82 60.35"
/>
<path stroke="#27abb5" vector-effect="non-scaling-stroke" d="
  M 95.38 60.36
  Q 92.27 61.31 89.33 61.76
  C 87.20 62.08 83.11 60.57 81.25 59.53
  C 77.13 57.23 72.76 54.38 68.27 53.81
  Q 62.11 53.03 56.25 55.75
  C 52.88 57.31 48.66 60.81 44.60 61.39
  Q 40.39 62.00 35.82 60.35"
/>
<path stroke="#71d4d9" vector-effect="non-scaling-stroke" d="
  M 95.24 83.50
  C 86.12 87.88 81.23 83.05 73.40 79.34
  Q 65.44 75.57 56.82 79.33
  C 53.09 80.96 49.01 84.34 44.98 85.10
  Q 40.15 86.02 35.79 83.88"
/>
</g>
<path fill="#195c6c" d="
  M 0.00 0.00
  L 128.00 0.00
  L 128.00 128.00
  L 0.00 128.00
  L 0.00 0.00
  Z
  M 35.82 60.35
  L 35.79 83.88
  C 35.66 92.34 33.86 102.98 43.51 107.22
  Q 46.32 108.46 52.33 108.48
  Q 65.27 108.52 78.21 108.50
  Q 84.70 108.49 87.61 107.20
  C 97.25 102.93 95.18 92.06 95.24 83.50
  L 95.38 60.36
  Q 95.34 52.34 95.18 43.72
  Q 95.03 35.69 93.47 32.54
  Q 90.49 26.53 82.76 26.05
  Q 75.37 25.59 52.23 25.99
  C 45.84 26.10 40.49 27.04 37.53 32.57
  Q 35.97 35.48 35.88 42.12
  Q 35.76 51.38 35.82 60.35
  Z"
/>
<path fill="#0395a2" d="
  M 95.38 60.36
  Q 92.27 61.31 89.33 61.76
  C 87.20 62.08 83.11 60.57 81.25 59.53
  C 77.13 57.23 72.76 54.38 68.27 53.81
  Q 62.11 53.03 56.25 55.75
  C 52.88 57.31 48.66 60.81 44.60 61.39
  Q 40.39 62.00 35.82 60.35
  Q 35.76 51.38 35.88 42.12
  Q 35.97 35.48 37.53 32.57
  C 40.49 27.04 45.84 26.10 52.23 25.99
  Q 75.37 25.59 82.76 26.05
  Q 90.49 26.53 93.47 32.54
  Q 95.03 35.69 95.18 43.72
  Q 95.34 52.34 95.38 60.36
  Z"
/>
<path fill="#4bc1c7" d="
  M 95.38 60.36
  L 95.24 83.50
  C 86.12 87.88 81.23 83.05 73.40 79.34
  Q 65.44 75.57 56.82 79.33
  C 53.09 80.96 49.01 84.34 44.98 85.10
  Q 40.15 86.02 35.79 83.88
  L 35.82 60.35
  Q 40.39 62.00 44.60 61.39
  C 48.66 60.81 52.88 57.31 56.25 55.75
  Q 62.11 53.03 68.27 53.81
  C 72.76 54.38 77.13 57.23 81.25 59.53
  C 83.11 60.57 87.20 62.08 89.33 61.76
  Q 92.27 61.31 95.38 60.36
  Z"
/>
<path fill="#97e6eb" d="
  M 95.24 83.50
  C 95.18 92.06 97.25 102.93 87.61 107.20
  Q 84.70 108.49 78.21 108.50
  Q 65.27 108.52 52.33 108.48
  Q 46.32 108.46 43.51 107.22
  C 33.86 102.98 35.66 92.34 35.79 83.88
  Q 40.15 86.02 44.98 85.10
  C 49.01 84.34 53.09 80.96 56.82 79.33
  Q 65.44 75.57 73.40 79.34
  C 81.23 83.05 86.12 87.88 95.24 83.50
  Z"
/>
</svg>
