<svg width="24" height="24" viewBox="0 0 24 24" fill="none" xmlns="http://www.w3.org/2000/svg">
<g clip-path="url(#clip0_3_649)">
<rect width="24" height="24" fill="#FFEFDB"/>
<path d="M1 12C1 4 4 1 12 1C20 1 23 4 23 12C23 20 20 23 12 23C4 23 1 20 1 12Z" fill="#FFEFDB"/>
<path d="M6.81189 12.4382C6.81189 9.14876 8.29142 7.93823 12.3119 7.93823C16.3324 7.93823 17.8119 9.14876 17.8119 12.4382C17.8119 15.7277 16.3324 16.9382 12.3119 16.9382C8.29142 16.9382 6.81189 15.7277 6.81189 12.4382Z" fill="#FF1717"/>
<path d="M15.1999 11.2049L11.1701 7.93823L2.81189 14.9382L10.4238 11.6716L14.4537 14.9382L22.8119 7.93823L15.1999 11.2049Z" fill="#FF1717"/>
</g>
<defs>
<clipPath id="clip0_3_649">
<rect width="24" height="24" fill="white"/>
</clipPath>
</defs>
</svg>
